<svg xmlns="http://www.w3.org/2000/svg" width="149" height="25" fill="none"><path fill="#242A45" fill-rule="evenodd" d="M51.6907 19.0387c1.064.616 2.2493.924 3.556.924 1.3066 0 2.492-.308 3.556-.924 1.064-.616 1.9009-1.4591 2.5106-2.5294.6098-1.0702.9147-2.2462.9147-3.528s-.3049-2.4577-.9147-3.52797C60.7036 8.38311 59.8667 7.54 58.8027 6.924 57.7387 6.308 56.5533 6 55.2467 6c-1.3067 0-2.492.308-3.556.924-1.064.616-1.9009 1.45911-2.5107 2.52933-.6098 1.07027-.9147 2.24617-.9147 3.52797 0 1.2818.3049 2.4578.9147 3.528.6098 1.0703 1.4467 1.9134 2.5107 2.5294Zm-9.464-12.74003H37V19.664h5.4133c.8089 0 1.5463-.1524 2.212-.4573.6658-.3049 1.1947-.7405 1.5867-1.3067.392-.5662.588-1.2164.588-1.9507 0-.7591-.2053-1.4093-.616-1.9506-.4107-.5414-.9644-.9365-1.6613-1.1854v-.1493c.5351-.2613.9675-.6378 1.2973-1.1293.3298-.4916.4947-1.0734.4947-1.74537 0-.63467-.1805-1.21955-.5414-1.75466-.3609-.53512-.8555-.95822-1.484-1.26934-.6284-.31111-1.316-.46666-2.0626-.46666ZM43.356 11.292c-.3298.3049-.7684.4573-1.316.4573h-2.52V8.55733h2.5947c.5226 0 .9426.15245 1.26.45734.3173.30489.476.68133.476 1.12933 0 .4604-.1649.8431-.4947 1.148Zm-1.036 6.076c.6098 0 1.0858-.1587 1.428-.476.3422-.3173.5133-.7311.5133-1.2413 0-.5103-.1742-.9271-.5226-1.2507-.3485-.3236-.8463-.4853-1.4934-.4853H39.52v3.4533h2.8Zm12.9267.2053c.8213 0 1.5742-.1929 2.2586-.5786.6845-.3858 1.2227-.9271 1.6147-1.624.392-.6969.588-1.4934.588-2.3894 0-.896-.196-1.6924-.588-2.3893-.392-.69689-.9302-1.23822-1.6147-1.624-.6844-.38578-1.4373-.57867-2.2586-.57867-.8214 0-1.5711.19289-2.2494.57867-.6782.38578-1.2133.92711-1.6053 1.624-.392.6969-.588 1.4933-.588 2.3893 0 .896.196 1.6925.588 2.3894.392.6969.9271 1.2382 1.6053 1.624.6783.3857 1.428.5786 2.2494.5786Zm11.7973 1.4654c1.064.616 2.2493.924 3.556.924 1.3067 0 2.492-.308 3.556-.924 1.064-.616 1.9009-1.4591 2.5107-2.5294.6097-1.0702.9146-2.2462.9146-3.528s-.3049-2.4577-.9146-3.52797C76.0569 8.38311 75.22 7.54 74.156 6.924 73.092 6.308 71.9067 6 70.6 6c-1.3067 0-2.492.308-3.556.924-1.064.616-1.9009 1.45911-2.5107 2.52933-.6097 1.07027-.9146 2.24617-.9146 3.52797 0 1.2818.3049 2.4578.9146 3.528.6098 1.0703 1.4467 1.9134 2.5107 2.5294Zm3.556-1.4654c.8213 0 1.5742-.1929 2.2587-.5786.6844-.3858 1.2226-.9271 1.6146-1.624.392-.6969.588-1.4934.588-2.3894 0-.896-.196-1.6924-.588-2.3893-.392-.69689-.9302-1.23822-1.6146-1.624-.6845-.38578-1.4374-.57867-2.2587-.57867-.8213 0-1.5711.19289-2.2493.57867-.6783.38578-1.2134.92711-1.6054 1.624-.392.6969-.588 1.4933-.588 2.3893 0 .896.196 1.6925.588 2.3894.392.6969.9271 1.2382 1.6054 1.624.6782.3857 1.428.5786 2.2493.5786ZM82.3507 6.29867h-2.52V19.664h2.52v-3.92l1.512-1.7733 3.9946 5.6933h3.08v-.1493l-5.3386-7.5414 4.8346-5.5253v-.14933h-3.0426L82.5 12.0293h-.1493V6.29867ZM93.7778 6h3.248l3.5462 9.3893h.15L104.268 6h3.267v13.3653h-2.501V12.776l.149-2.2213h-.149l-3.398 8.8106h-1.9596l-3.416-8.8106h-.1493l.1493 2.2213v6.5893h-2.4826V6Zm23.6942 0h-2.893l-5.003 13.3653h2.781l1.12-3.192h5.115l1.12 3.192h2.781L117.472 6Zm.299 7.8587-1.176-3.36-.486-1.60537h-.149l-.485 1.60537-1.195 3.36h3.491ZM129.425 6h-4.872v13.3653h2.52V14.344h1.176l3.453 5.0213h2.894v-.1493l-3.584-5.1333.018-.1307c.822-.2987 1.503-.7809 2.044-1.4467.542-.6657.812-1.428.812-2.2866 0-.80893-.186-1.53381-.56-2.1747-.373-.64089-.899-1.14178-1.577-1.50267C131.071 6.18044 130.296 6 129.425 6Zm-.019 6.0293c.573 0 1.039-.1742 1.4-.5226.361-.3485.542-.7903.542-1.3254 0-.51019-.172-.94574-.514-1.30663-.342-.36089-.806-.54134-1.39-.54134h-2.371v3.69597h2.333ZM139.156 6h-2.52v13.3653h2.52v-3.92l1.512-1.7733 3.995 5.6933h3.08v-.1493l-5.339-7.5413 4.835-5.52537V6h-3.043l-4.89 5.7307h-.15V6Z" clip-rule="evenodd"/><circle cx="12.5" cy="12.5" r="12.5" fill="#5267DF"/><path fill="#fff" fill-rule="evenodd" d="M11 7c-1.10457 0-2 .89543-2 2v10l3.5395-3.4391L16.0789 19V9c0-1.10457-.8954-2-2-2H11Z" clip-rule="evenodd"/></svg>